<?xml version="1.0" standalone="no"?>
<!DOCTYPE svg PUBLIC "-//W3C//DTD SVG 20010904//EN"
 "http://www.w3.org/TR/2001/REC-SVG-20010904/DTD/svg10.dtd">
<svg version="1.0" xmlns="http://www.w3.org/2000/svg"
 width="500.000000pt" height="500.000000pt" viewBox="0 0 500.000000 500.000000"
 preserveAspectRatio="xMidYMid meet">
<metadata>
Created by potrace 1.16, written by Peter Selinger 2001-2019
</metadata>
<g transform="translate(0.000000,500.000000) scale(0.100000,-0.100000)"
fill="#000000" stroke="none">
<path d="M2310 3448 c-181 -38 -403 -174 -516 -316 -110 -139 -186 -296 -218
-454 -20 -97 -21 -301 -2 -400 17 -87 73 -237 112 -299 87 -140 120 -183 195
-253 110 -103 129 -117 237 -170 139 -69 244 -97 387 -103 186 -8 300 16 470
98 210 102 393 301 481 526 54 136 65 188 71 328 4 106 1 147 -15 225 -22 106
-76 252 -122 330 -35 60 -128 179 -180 230 -86 84 -267 196 -381 234 -145 49
-357 59 -519 24z m460 -53 c278 -89 488 -270 618 -531 75 -148 111 -350 92
-509 -33 -280 -163 -511 -382 -675 -97 -73 -165 -109 -274 -143 -212 -67 -415
-57 -633 32 -104 42 -186 100 -292 204 -270 267 -368 664 -247 1006 81 231
189 373 375 498 170 114 310 154 518 149 119 -3 153 -8 225 -31z"/>
<path d="M2476 2848 c-11 -6 -35 -26 -53 -44 -49 -49 -44 -74 27 -154 51 -58
58 -69 45 -80 -21 -17 -19 -40 4 -40 12 0 29 15 43 38 l23 37 3 -154 3 -155
-43 -43 c-24 -25 -60 -49 -82 -55 -35 -11 -43 -9 -91 16 -29 15 -60 35 -69 44
-14 16 -10 21 44 65 l59 47 3 -43 c2 -29 8 -42 18 -42 12 0 16 18 18 93 1 50
-1 92 -5 92 -4 0 -19 -15 -32 -33 -21 -29 -101 -98 -138 -120 -10 -6 -19 -3
-29 10 -19 23 -50 82 -58 110 l-7 21 58 -24 c71 -29 93 -30 93 -5 0 15 -13 24
-52 36 -67 22 -130 58 -179 102 -23 21 -45 33 -54 29 -27 -10 -16 -34 35 -71
28 -20 50 -45 50 -55 0 -34 82 -181 123 -222 46 -44 148 -98 187 -98 29 0 94
32 128 63 l22 20 0 -26 c0 -15 -4 -27 -10 -27 -5 0 -10 -10 -10 -21 0 -21 3
-22 68 -16 79 6 170 38 213 75 27 22 34 24 51 13 54 -33 100 -52 114 -47 25
10 12 28 -42 56 -27 15 -49 31 -49 36 0 5 14 36 31 69 57 110 74 275 29 275
-15 0 -28 -27 -19 -41 3 -5 0 -42 -6 -81 -11 -73 -63 -188 -84 -188 -6 1 -40
27 -75 60 l-64 58 17 41 c9 23 16 62 16 86 0 38 -3 45 -20 45 -16 0 -20 -7
-20 -32 0 -18 -4 -49 -10 -68 -10 -37 -64 -110 -81 -110 -7 0 -9 51 -7 140 l3
140 38 31 c20 17 37 37 37 45 0 8 -22 37 -49 65 -45 46 -52 49 -97 49 -27 0
-58 -6 -68 -12z m303 -530 l52 -47 -34 -25 c-41 -32 -89 -51 -144 -60 l-43 -6
0 75 c0 74 1 75 37 109 43 39 34 42 132 -46z"/>
</g>
</svg>
